<?xml version="1.0" standalone="no"?>
<!DOCTYPE svg PUBLIC "-//W3C//DTD SVG 20010904//EN"
 "http://www.w3.org/TR/2001/REC-SVG-20010904/DTD/svg10.dtd">
<svg version="1.0" xmlns="http://www.w3.org/2000/svg"
 width="920.000000pt" height="1060.000000pt" viewBox="0 0 920.000000 1060.000000"
 preserveAspectRatio="xMidYMid meet">

<g transform="translate(0.000000,1060.000000) scale(0.100000,-0.100000)"
fill="#000000" stroke="none">
<path d="M5361 10185 c-327 -74 -528 -300 -662 -744 -60 -199 -99 -464 -99
-675 l0 -98 53 44 c185 159 391 227 791 263 190 17 274 34 349 70 98 46 222
169 274 269 72 142 71 420 -4 559 -37 68 -157 194 -225 234 -131 79 -331 111
-477 78z"/>
<path d="M3423 9881 c-116 -30 -253 -141 -303 -245 -16 -34 -34 -94 -41 -133
-28 -171 56 -358 203 -454 80 -51 128 -65 322 -89 312 -39 476 -103 638 -248
l51 -47 -6 150 c-22 564 -224 952 -547 1050 -62 18 -267 29 -317 16z"/>
<path d="M2430 8350 c-91 -5 -161 -14 -189 -24 -180 -67 -328 -232 -376 -421
-19 -76 -19 -234 0 -310 37 -143 139 -282 269 -364 120 -75 132 -77 612 -91
183 -5 338 -12 346 -15 13 -5 6 -40 -39 -203 -181 -654 -1405 -5032 -1724
-6165 -71 -255 -89 -331 -80 -340 9 -9 162 -13 609 -15 l597 -3 65 228 c35
125 75 263 88 306 l23 77 1971 -2 1971 -3 86 -303 86 -303 597 3 c458 2 600 6
609 15 10 10 -2 66 -60 270 -205 726 -1505 5375 -1733 6200 -53 191 -62 233
-50 238 8 3 166 10 351 15 479 14 495 16 612 92 139 89 247 245 269 388 49
318 -68 550 -355 699 l-70 36 -2170 1 c-1193 1 -2235 -2 -2315 -6z m2434
-1227 c46 -156 326 -1184 326 -1196 0 -16 -41 -17 -590 -17 -569 0 -590 1
-590 19 0 10 69 268 154 572 85 305 159 573 165 597 l12 42 259 0 c238 0 259
-1 264 -17z m146 -1830 l365 -6 211 -751 211 -751 -236 -6 c-130 -4 -562 -6
-961 -6 -399 0 -831 2 -961 6 l-236 6 114 405 c218 778 305 1085 310 1090 17
18 563 25 1183 13z m969 -2165 c5 -18 67 -235 136 -483 69 -247 160 -571 202
-718 57 -204 72 -272 64 -280 -17 -17 -3545 -17 -3561 -1 -9 9 13 102 89 370
134 480 311 1122 311 1128 0 8 407 11 1672 14 l1076 2 11 -32z"/>
</g>
</svg>
